<mxfile host="app.diagrams.net" modified="2023-04-03T03:10:08.480Z" agent="Mozilla/5.0 (Windows NT 10.0; Win64; x64) AppleWebKit/537.36 (KHTML, like Gecko) Chrome/108.0.0.0 Safari/537.36" etag="3D1MRRI-8JcDbc6yyKtd" version="21.1.2" type="github">
  <diagram id="07fea595-8f29-1299-0266-81d95cde20df" name="Page-1">
    <mxGraphModel dx="2878" dy="919" grid="1" gridSize="10" guides="1" tooltips="1" connect="1" arrows="1" fold="1" page="1" pageScale="1" pageWidth="1169" pageHeight="827" background="#ffffff" math="0" shadow="0">
      <root>
        <mxCell id="0" />
        <mxCell id="1" parent="0" />
        <mxCell id="170" value="" style="swimlane;whiteSpace=wrap;fillColor=none;swimlaneFillColor=#BAC8D3;fontColor=#2F5B7C;fontFamily=Tahoma;html=1;strokeColor=none;opacity=50;" parent="1" vertex="1">
          <mxGeometry x="20" y="120" width="590" height="650" as="geometry">
            <mxRectangle x="20" y="20" width="80" height="23" as="alternateBounds" />
          </mxGeometry>
        </mxCell>
        <mxCell id="171" value="PHP_TSF&lt;br&gt;（php对外API服务）" style="whiteSpace=wrap;shadow=0;fontColor=#FFFFFF;fontFamily=Helvetica;fontStyle=0;html=1;fontSize=12;plain-purple;strokeColor=none;fillColor=#2f5b7c;gradientColor=none;spacing=6;verticalAlign=middle;" parent="170" vertex="1">
          <mxGeometry x="5.5" y="110" width="124.5" height="60" as="geometry" />
        </mxCell>
        <mxCell id="172" value="solution_cprealtime（JAVA对外API服务）" style="whiteSpace=wrap;strokeColor=none;fillColor=#2f5b7c;shadow=0;fontColor=#FFFFFF;fontFamily=Helvetica;fontStyle=0;html=1;fontSize=12;spacing=6;verticalAlign=middle;" parent="170" vertex="1">
          <mxGeometry x="5.5" y="295" width="134.5" height="60" as="geometry" />
        </mxCell>
        <mxCell id="173" value="CooperateApiService（JAVA对外API服务）" style="whiteSpace=wrap;strokeColor=none;fillColor=#2f5b7c;shadow=0;fontColor=#FFFFFF;fontFamily=Helvetica;fontStyle=0;html=1;fontSize=12;spacing=6;verticalAlign=middle;" parent="170" vertex="1">
          <mxGeometry x="10" y="470" width="130" height="60" as="geometry" />
        </mxCell>
        <mxCell id="dljOwYPcjRnaSR4ahVal-224" value="&lt;b&gt;在线模式&lt;/b&gt;" style="text;html=1;strokeColor=none;fillColor=none;align=center;verticalAlign=middle;whiteSpace=wrap;rounded=0;" vertex="1" parent="170">
          <mxGeometry x="35.5" y="50.5" width="60" height="30" as="geometry" />
        </mxCell>
        <mxCell id="dljOwYPcjRnaSR4ahVal-226" value="CPAPI_GO&lt;br&gt;（go语言重构API服务）" style="whiteSpace=wrap;html=1;fillColor=#2f5b7c;strokeColor=none;fontColor=#FFFFFF;shadow=0;fontStyle=0;spacing=6;" vertex="1" parent="170">
          <mxGeometry x="180" y="200" width="140" height="60" as="geometry" />
        </mxCell>
        <mxCell id="dljOwYPcjRnaSR4ahVal-228" value="" style="edgeStyle=segmentEdgeStyle;strokeColor=#2F5B7C;strokeWidth=3;html=1;endArrow=block;endFill=1;exitX=1;exitY=0.5;exitDx=0;exitDy=0;entryX=0.5;entryY=1;entryDx=0;entryDy=0;" edge="1" parent="170" source="172" target="dljOwYPcjRnaSR4ahVal-226">
          <mxGeometry width="100" height="100" relative="1" as="geometry">
            <mxPoint x="76" y="396" as="sourcePoint" />
            <mxPoint x="220" y="300" as="targetPoint" />
          </mxGeometry>
        </mxCell>
        <mxCell id="dljOwYPcjRnaSR4ahVal-229" value="解决旧技术栈参差不齐难以迭代问题" style="edgeLabel;html=1;align=center;verticalAlign=middle;resizable=0;points=[];fontStyle=1" vertex="1" connectable="0" parent="dljOwYPcjRnaSR4ahVal-228">
          <mxGeometry x="-0.2064" y="1" relative="1" as="geometry">
            <mxPoint x="28" y="24" as="offset" />
          </mxGeometry>
        </mxCell>
        <mxCell id="dljOwYPcjRnaSR4ahVal-230" value="重构" style="edgeLabel;html=1;align=center;verticalAlign=middle;resizable=0;points=[];" vertex="1" connectable="0" parent="dljOwYPcjRnaSR4ahVal-228">
          <mxGeometry x="-0.1185" y="4" relative="1" as="geometry">
            <mxPoint as="offset" />
          </mxGeometry>
        </mxCell>
        <mxCell id="202" value="" style="edgeStyle=segmentEdgeStyle;strokeColor=#2F5B7C;strokeWidth=3;html=1;endArrow=block;endFill=1;exitX=1;exitY=0.5;exitDx=0;exitDy=0;" parent="170" source="171" edge="1">
          <mxGeometry x="134.5" y="87" width="100" height="100" as="geometry">
            <mxPoint x="194.5" y="157" as="sourcePoint" />
            <mxPoint x="250" y="200" as="targetPoint" />
            <Array as="points">
              <mxPoint x="250" y="140" />
            </Array>
          </mxGeometry>
        </mxCell>
        <mxCell id="dljOwYPcjRnaSR4ahVal-225" value="解决TSF框架无人维护问题" style="edgeLabel;html=1;align=center;verticalAlign=middle;resizable=0;points=[];fontStyle=1" vertex="1" connectable="0" parent="202">
          <mxGeometry relative="1" as="geometry">
            <mxPoint x="5" y="-20" as="offset" />
          </mxGeometry>
        </mxCell>
        <mxCell id="dljOwYPcjRnaSR4ahVal-231" value="重构" style="edgeLabel;html=1;align=center;verticalAlign=middle;resizable=0;points=[];" vertex="1" connectable="0" parent="202">
          <mxGeometry relative="1" as="geometry">
            <mxPoint x="-25" y="-3" as="offset" />
          </mxGeometry>
        </mxCell>
        <mxCell id="dljOwYPcjRnaSR4ahVal-232" value="&lt;b&gt;离线模式&lt;/b&gt;" style="text;html=1;strokeColor=none;fillColor=none;align=center;verticalAlign=middle;whiteSpace=wrap;rounded=0;" vertex="1" parent="170">
          <mxGeometry x="30" y="430" width="60" height="30" as="geometry" />
        </mxCell>
        <mxCell id="dljOwYPcjRnaSR4ahVal-233" value="&lt;div style=&quot;color: rgb(0, 0, 0); font-size: medium; text-align: start;&quot; data-hash=&quot;d60374381fc56219d8415972a1e62381&quot; data-version=&quot;3.0.0&quot;&gt;&lt;/div&gt;solution_cprealtime（JAVA对外API服务，包含反盗能力）" style="whiteSpace=wrap;strokeColor=none;fillColor=#2f5b7c;shadow=0;fontColor=#FFFFFF;fontFamily=Helvetica;fontStyle=0;html=1;fontSize=12;spacing=6;verticalAlign=middle;" vertex="1" parent="170">
          <mxGeometry x="7.75" y="550" width="130" height="60" as="geometry" />
        </mxCell>
        <mxCell id="dljOwYPcjRnaSR4ahVal-234" value="&lt;div style=&quot;font-size: medium; text-align: start;&quot; data-hash=&quot;ff6b2d522a5c3a782620d886ee600b97&quot; data-version=&quot;3.0.0&quot;&gt;&lt;/div&gt;提升容灾能力&lt;br&gt;缓存兜底" style="ellipse;shape=cloud;whiteSpace=wrap;html=1;fontStyle=1" vertex="1" parent="170">
          <mxGeometry x="190" y="430" width="100" height="190" as="geometry" />
        </mxCell>
        <mxCell id="dljOwYPcjRnaSR4ahVal-237" value="PHP_TSF&lt;br&gt;（php对外API服务）" style="whiteSpace=wrap;shadow=0;fontColor=#FFFFFF;fontFamily=Helvetica;fontStyle=0;html=1;fontSize=12;plain-purple;strokeColor=none;fillColor=#2f5b7c;gradientColor=none;spacing=6;verticalAlign=middle;" vertex="1" parent="170">
          <mxGeometry x="5.5" y="110" width="124.5" height="60" as="geometry" />
        </mxCell>
        <mxCell id="dljOwYPcjRnaSR4ahVal-238" value="CPAPI_GO&lt;br&gt;（go语言重构API服务）" style="whiteSpace=wrap;html=1;fillColor=#2f5b7c;strokeColor=none;fontColor=#FFFFFF;shadow=0;fontStyle=0;spacing=6;" vertex="1" parent="170">
          <mxGeometry x="180" y="200" width="140" height="60" as="geometry" />
        </mxCell>
        <mxCell id="dljOwYPcjRnaSR4ahVal-239" value="solution_cprealtime（JAVA对外API服务）" style="whiteSpace=wrap;strokeColor=none;fillColor=#2f5b7c;shadow=0;fontColor=#FFFFFF;fontFamily=Helvetica;fontStyle=0;html=1;fontSize=12;spacing=6;verticalAlign=middle;" vertex="1" parent="170">
          <mxGeometry x="5.5" y="295" width="134.5" height="60" as="geometry" />
        </mxCell>
        <mxCell id="dljOwYPcjRnaSR4ahVal-241" value="&lt;b&gt;&lt;font style=&quot;font-size: 14px;&quot;&gt;一期：聚焦基础能力升级&lt;/font&gt;&lt;/b&gt;" style="text;html=1;align=center;verticalAlign=middle;resizable=0;points=[];autosize=1;strokeColor=none;fillColor=none;" vertex="1" parent="170">
          <mxGeometry x="95" y="-40" width="180" height="30" as="geometry" />
        </mxCell>
        <mxCell id="180" value="&lt;font color=&quot;#23497d&quot;&gt;VP Sales&lt;/font&gt;" style="swimlane;whiteSpace=wrap;fillColor=none;swimlaneFillColor=#BAC8D3;fontColor=#2F5B7C;fontFamily=Tahoma;html=1;strokeColor=none;opacity=50;" parent="1" vertex="1">
          <mxGeometry x="844.5" y="120" width="160" height="650" as="geometry">
            <mxRectangle x="20" y="20" width="80" height="23" as="alternateBounds" />
          </mxGeometry>
        </mxCell>
        <mxCell id="181" value="Outbound Accounting" style="whiteSpace=wrap;fillColor=#427FAD;strokeColor=none;shadow=0;fontColor=#FFFFFF;fontFamily=Helvetica;fontStyle=0;html=1;fontSize=12;spacing=6;verticalAlign=middle;" parent="180" vertex="1">
          <mxGeometry x="20" y="160" width="120" height="60" as="geometry" />
        </mxCell>
        <mxCell id="182" value="Account Processing" style="whiteSpace=wrap;strokeColor=none;fillColor=#427FAD;shadow=0;fontColor=#FFFFFF;fontFamily=Helvetica;fontStyle=0;html=1;fontSize=12;spacing=6;verticalAlign=middle;" parent="180" vertex="1">
          <mxGeometry x="20" y="420" width="120" height="60" as="geometry" />
        </mxCell>
        <mxCell id="187" value="&lt;font color=&quot;#23497d&quot;&gt;Sales Representative&lt;/font&gt;" style="swimlane;whiteSpace=wrap;fillColor=none;swimlaneFillColor=#BAC8D3;fontColor=#2F5B7C;fontFamily=Tahoma;html=1;strokeColor=none;opacity=50;" parent="1" vertex="1">
          <mxGeometry x="630" y="120.5" width="160" height="650" as="geometry">
            <mxRectangle x="20" y="20" width="80" height="23" as="alternateBounds" />
          </mxGeometry>
        </mxCell>
        <mxCell id="188" value="Product Quotations" style="shape=document;whiteSpace=wrap;verticalAlign=middle;strokeColor=none;fillColor=#12aab5;shadow=0;fontColor=#FFFFFF;fontFamily=Helvetica;fontStyle=0;html=1;fontSize=12;spacing=6;spacingBottom=22;" parent="187" vertex="1">
          <mxGeometry x="20" y="50" width="120" height="80" as="geometry" />
        </mxCell>
        <mxCell id="189" value="Orders" style="shape=document;whiteSpace=wrap;verticalAlign=middle;strokeColor=none;fillColor=#12aab5;shadow=0;fontColor=#FFFFFF;fontFamily=Helvetica;fontStyle=0;html=1;fontSize=12;spacing=6;spacingBottom=22;" parent="187" vertex="1">
          <mxGeometry x="20" y="225" width="120" height="80" as="geometry" />
        </mxCell>
        <mxCell id="190" value="Product Delivery Notification" style="shape=document;whiteSpace=wrap;strokeColor=none;fillColor=#12aab5;shadow=0;fontColor=#FFFFFF;fontFamily=Helvetica;fontStyle=0;html=1;fontSize=12;verticalAlign=middle;spacing=6;spacingBottom=22;" parent="187" vertex="1">
          <mxGeometry x="20" y="400" width="120" height="80" as="geometry" />
        </mxCell>
        <mxCell id="191" value="Invoice" style="shape=document;whiteSpace=wrap;verticalAlign=middle;strokeColor=none;fillColor=#12aab5;shadow=0;fontColor=#FFFFFF;fontFamily=Helvetica;fontStyle=0;html=1;fontSize=12;spacing=6;spacingBottom=22;" parent="187" vertex="1">
          <mxGeometry x="20" y="520" width="120" height="80" as="geometry" />
        </mxCell>
        <mxCell id="192" value="" style="edgeStyle=segmentEdgeStyle;strokeColor=#12AAB5;strokeWidth=3;html=1;endArrow=block;endFill=1;" parent="187" source="190" target="191" edge="1">
          <mxGeometry width="100" height="100" relative="1" as="geometry">
            <mxPoint x="-80" y="375" as="sourcePoint" />
            <mxPoint x="60" y="490" as="targetPoint" />
            <Array as="points">
              <mxPoint x="53" y="501" />
              <mxPoint x="53" y="501" />
            </Array>
          </mxGeometry>
        </mxCell>
        <mxCell id="206" value="" style="edgeStyle=elbowEdgeStyle;elbow=vertical;strokeColor=#12AAB5;strokeWidth=3;html=1;endArrow=block;endFill=1;" parent="1" source="191" edge="1">
          <mxGeometry x="664.5" y="655" width="100" height="100" as="geometry">
            <mxPoint x="724.5" y="650" as="sourcePoint" />
            <mxPoint x="1024.5" y="685.5" as="targetPoint" />
          </mxGeometry>
        </mxCell>
        <mxCell id="207" value="" style="edgeStyle=segmentEdgeStyle;strokeColor=#2F5B7C;strokeWidth=3;html=1;endArrow=block;endFill=1;" parent="1" target="189" edge="1">
          <mxGeometry x="610" y="315.5" width="100" height="100" as="geometry">
            <mxPoint x="695.5" y="315.5" as="sourcePoint" />
            <mxPoint x="840" y="230.5" as="targetPoint" />
            <Array as="points" />
          </mxGeometry>
        </mxCell>
        <mxCell id="208" value="" style="edgeStyle=segmentEdgeStyle;strokeColor=#12AAB5;strokeWidth=3;html=1;endArrow=block;endFill=1;" parent="1" source="188" edge="1">
          <mxGeometry x="770" y="210.5" width="100" height="100" as="geometry">
            <mxPoint x="730" y="280.5" as="sourcePoint" />
            <mxPoint x="870" y="280.5" as="targetPoint" />
          </mxGeometry>
        </mxCell>
        <mxCell id="209" value="" style="edgeStyle=none;strokeColor=#2F5B7C;strokeWidth=3;html=1;endArrow=block;endFill=1;" parent="1" target="181" edge="1">
          <mxGeometry x="824.5" y="310" width="100" height="100" as="geometry">
            <mxPoint x="824.5" y="310" as="sourcePoint" />
            <mxPoint x="964.5" y="390" as="targetPoint" />
          </mxGeometry>
        </mxCell>
        <mxCell id="210" value="" style="edgeStyle=segmentEdgeStyle;strokeColor=#12AAB5;strokeWidth=3;html=1;endArrow=block;endFill=1;" parent="1" source="189" edge="1">
          <mxGeometry x="690" y="425.5" width="100" height="100" as="geometry">
            <mxPoint x="810" y="520.5" as="sourcePoint" />
            <mxPoint x="810" y="470.5" as="targetPoint" />
            <Array as="points">
              <mxPoint x="690" y="470.5" />
            </Array>
          </mxGeometry>
        </mxCell>
        <mxCell id="211" value="" style="edgeStyle=segmentEdgeStyle;strokeColor=#2F5B7C;strokeWidth=3;html=1;endArrow=block;endFill=1;" parent="1" target="181" edge="1">
          <mxGeometry x="824.5" y="340" width="100" height="100" as="geometry">
            <mxPoint x="824.5" y="465" as="sourcePoint" />
            <mxPoint x="924.5" y="370" as="targetPoint" />
          </mxGeometry>
        </mxCell>
        <mxCell id="212" value="" style="edgeStyle=segmentEdgeStyle;strokeColor=#2F5B7C;strokeWidth=3;html=1;endArrow=block;endFill=1;" parent="1" target="182" edge="1">
          <mxGeometry x="824.5" y="465" width="100" height="100" as="geometry">
            <mxPoint x="824.5" y="465" as="sourcePoint" />
            <mxPoint x="794.5" y="520" as="targetPoint" />
          </mxGeometry>
        </mxCell>
        <mxCell id="213" value="" style="edgeStyle=segmentEdgeStyle;strokeColor=#2F5B7C;strokeWidth=3;html=1;endArrow=block;endFill=1;fillColor=#427FAD;" parent="1" source="181" edge="1">
          <mxGeometry x="924.5" y="210" width="100" height="100" as="geometry">
            <mxPoint x="1044.5" y="410" as="sourcePoint" />
            <mxPoint x="1024.5" y="210" as="targetPoint" />
            <Array as="points">
              <mxPoint x="924.5" y="210" />
            </Array>
          </mxGeometry>
        </mxCell>
        <mxCell id="214" value="" style="edgeStyle=segmentEdgeStyle;strokeColor=#2F5B7C;strokeWidth=3;html=1;endArrow=block;endFill=1;fillColor=#427FAD;" parent="1" source="181" edge="1">
          <mxGeometry x="984.5" y="310" width="100" height="100" as="geometry">
            <mxPoint x="1034.5" y="420" as="sourcePoint" />
            <mxPoint x="1084.5" y="425" as="targetPoint" />
          </mxGeometry>
        </mxCell>
        <mxCell id="215" value="" style="edgeStyle=segmentEdgeStyle;strokeColor=#2F5B7C;strokeWidth=3;html=1;endArrow=block;endFill=1;fillColor=#427FAD;" parent="1" source="182" edge="1">
          <mxGeometry x="984.5" y="570" width="100" height="100" as="geometry">
            <mxPoint x="1064.5" y="610" as="sourcePoint" />
            <mxPoint x="1084.5" y="650" as="targetPoint" />
          </mxGeometry>
        </mxCell>
        <mxCell id="dljOwYPcjRnaSR4ahVal-236" value="" style="edgeStyle=segmentEdgeStyle;strokeColor=#2F5B7C;strokeWidth=3;html=1;endArrow=block;endFill=1;exitX=1;exitY=0.5;exitDx=0;exitDy=0;" edge="1" parent="1" source="173">
          <mxGeometry x="814.5" y="288.5" width="100" height="100" as="geometry">
            <mxPoint x="815" y="289" as="sourcePoint" />
            <mxPoint x="220" y="620" as="targetPoint" />
          </mxGeometry>
        </mxCell>
        <mxCell id="dljOwYPcjRnaSR4ahVal-240" value="" style="edgeStyle=segmentEdgeStyle;strokeColor=#2F5B7C;strokeWidth=3;html=1;endArrow=block;endFill=1;" edge="1" parent="1">
          <mxGeometry x="654.5" y="443.5" width="100" height="100" as="geometry">
            <mxPoint x="160" y="700" as="sourcePoint" />
            <mxPoint x="230" y="700" as="targetPoint" />
          </mxGeometry>
        </mxCell>
        <mxCell id="dljOwYPcjRnaSR4ahVal-242" value="Actor" style="shape=umlActor;verticalLabelPosition=bottom;verticalAlign=top;html=1;outlineConnect=0;" vertex="1" parent="1">
          <mxGeometry x="-90" y="280" width="30" height="60" as="geometry" />
        </mxCell>
      </root>
    </mxGraphModel>
  </diagram>
</mxfile>
